:FULLY-SPECIFIED
:FORCE-ALL-JOINTS-BE-3DOF
:DEGREES
645
root 5.55654 16.4917 -2.99286 16.7787 13.6792 -1.60357
lfemur -18.9052 22.2405 -26.6581
ltibia 35.794 0 0
lfoot -36.0616 11.1601 0
ltoes 24.4023 0 0
rfemur -56.3108 -27.0141 28.3508
rtibia 63.2871 0 0
rfoot -5.66301 -3.64459 0
rtoes 4.47322 0 0
lowerback -0.859429 -3.57879 -5.0734
upperback -2.3293 -4.78204 0.816312
thorax -1.43621 -2.30694 3.67354
lowerneck -9.54489 -7.89572 -0.224257
upperneck 3.88804 -11.0784 7.87718
head 3.47601 -5.19356 1.95068
lclavicle 5.50634e-14 1.19271e-14 0
lhumerus -42.5451 -68.2693 122.827
lradius 73.7683 0 0
lwrist 24.8853 0 0
lhand -4.44354 2.86914 0
lfingers 7.12502 0 0
lthumb 21.328 31.7155 0
rclavicle 5.50634e-14 1.19271e-14 0
rhumerus -33.5991 4.42662 -75.4864
rradius 73.7453 0 0
rwrist -19.5242 0 0
rhand -28.5506 -37.3401 0
rfingers 7.12502 0 0
rthumb -1.91768 -787.311 0
646
root 5.5488 16.4636 -2.93079 17.046 12.7083 -1.43727
lfemur -19.0784 22.7127 -26.9059
ltibia 36.217 0 0
lfoot -36.1413 11.1306 0
ltoes 23.9233 0 0
rfemur -57.3402 -27.4798 29.5422
rtibia 63.8906 0 0
rfoot -6.24442 -3.32605 0
rtoes 3.8267 0 0
lowerback -0.884119 -3.63273 -5.12505
upperback -2.27231 -4.8527 0.678916
thorax -1.36444 -2.34551 3.55571
lowerneck -9.53009 -7.84279 -0.275018
upperneck 3.70628 -10.9893 7.896
head 3.41074 -5.15677 1.97464
lclavicle 3.22176e-14 3.94103e-16 0
lhumerus -42.9559 -68.6597 123.525
lradius 73.5682 0 0
lwrist 24.932 0 0
lhand -4.58107 3.09551 0
lfingers 7.12502 0 0
lthumb 21.1959 31.9566 0
rclavicle 3.22176e-14 3.94103e-16 0
rhumerus -34.7197 3.15303 -75.9474
rradius 71.7099 0 0
rwrist -18.6709 0 0
rhand -28.8061 -38.6248 0
rfingers 7.12502 0 0
rthumb -2.16441 -788.593 0
647
root 5.54183 16.4324 -2.8583 17.2763 11.6162 -1.21638
lfemur -19.1006 23.1685 -27.1912
ltibia 36.5638 0 0
lfoot -36.2489 11.1595 0
ltoes 23.3696 0 0
rfemur -58.3843 -27.9706 30.7847
rtibia 64.562 0 0
rfoot -6.77982 -3.11796 0
rtoes 3.29608 0 0
lowerback -0.883714 -3.6922 -5.20335
upperback -2.20411 -4.93204 0.515796
thorax -1.29462 -2.38831 3.42741
lowerneck -9.53163 -7.77459 -0.32822
upperneck 3.55515 -10.8795 7.87784
head 3.35572 -5.10972 1.98718
lclavicle 1.90248e-14 -4.39296e-15 0
lhumerus -43.3492 -69.0834 124.232
lradius 73.3978 0 0
lwrist 24.9598 0 0
lhand -4.7131 3.28694 0
lfingers 7.12502 0 0
lthumb 21.0691 32.1622 0
rclavicle 1.90248e-14 -4.39296e-15 0
rhumerus -35.9101 1.72254 -76.3136
rradius 69.5868 0 0
rwrist -17.9172 0 0
rhand -29.0062 -40.1175 0
rfingers 7.12502 0 0
rthumb -2.35765 -790.084 0
648
root 5.53572 16.3993 -2.77822 17.4668 10.4451 -0.950553
lfemur -18.9848 23.5928 -27.5066
ltibia 36.828 0 0
lfoot -36.3818 11.2503 0
ltoes 22.7662 0 0
rfemur -59.4106 -28.4712 32.0364
rtibia 65.2741 0 0
rfoot -7.25717 -3.02625 0
rtoes 2.8987 0 0
lowerback -0.860667 -3.75609 -5.30509
upperback -2.12797 -5.01847 0.334908
thorax -1.22843 -2.43443 3.29504
lowerneck -9.54699 -7.69387 -0.382222
upperneck 3.43057 -10.7528 7.82713
head 3.30946 -5.05428 1.98939
lclavicle 1.16043e-14 -4.74302e-15 0
lhumerus -43.7103 -69.5237 124.923
lradius 73.2617 0 0
lwrist 24.9728 0 0
lhand -4.82947 3.44415 0
lfingers 7.12502 0 0
lthumb 20.9573 32.3318 0
rclavicle 1.16043e-14 -4.74302e-15 0
rhumerus -37.1345 0.196864 -76.5792
rradius 67.4524 0 0
rwrist -17.2804 0 0
rhand -29.1566 -41.7459 0
rfingers 7.12502 0 0
rthumb -2.5029 -791.711 0
649
root 5.53057 16.3653 -2.69339 17.6151 9.23714 -0.649457
lfemur -18.7441 23.9705 -27.8447
ltibia 37.0034 0 0
lfoot -36.5374 11.4064 0
ltoes 22.1384 0 0
rfemur -60.3868 -28.9661 33.2553
rtibia 65.9995 0 0
rfoot -7.66444 -3.05682 0
rtoes 2.65191 0 0
lowerback -0.817432 -3.82328 -5.42705
upperback -2.04713 -5.11039 0.144211
thorax -1.16753 -2.483 3.16497
lowerneck -9.57367 -7.60339 -0.435382
upperneck 3.3285 -10.6131 7.74831
head 3.27049 -4.99231 1.98232
lclavicle 6.07542e-15 -2.96497e-15 0
lhumerus -44.0243 -69.9642 125.571
lradius 73.1643 0 0
lwrist 24.975 0 0
lhand -4.92001 3.5679 0
lfingers 7.12502 0 0
lthumb 20.8703 32.4652 0
rclavicle 6.07542e-15 -2.96497e-15 0
rhumerus -38.3572 -1.36231 -76.7384
rradius 65.3834 0 0
rwrist -16.7779 0 0
rhand -29.263 -43.4378 0
rfingers 7.12502 0 0
rthumb -2.60566 -793.402 0
650
root 5.52648 16.3316 -2.60667 17.7185 8.03447 -0.322753
lfemur -18.3914 24.2866 -28.198
ltibia 37.0839 0 0
lfoot -36.7131 11.6311 0
ltoes 21.5112 0 0
rfemur -61.2806 -29.44 34.3997
rtibia 66.711 0 0
rfoot -7.98958 -3.21562 0
rtoes 2.57305 0 0
lowerback -0.756463 -3.89263 -5.56602
upperback -1.96484 -5.20622 -0.0483379
thorax -1.1136 -2.53312 3.04358
lowerneck -9.60915 -7.5059 -0.486061
upperneck 3.24487 -10.4641 7.6458
head 3.23732 -4.92568 1.96705
lclavicle -1.44248e-15 -1.36774e-15 0
lhumerus -44.2766 -70.388 126.152
lradius 73.1103 0 0
lwrist 24.9705 0 0
lhand -4.97457 3.65889 0
lfingers 7.12502 0 0
lthumb 20.8179 32.562 0
rclavicle -1.44248e-15 -1.36774e-15 0
rhumerus -39.5424 -2.89327 -76.7857
rradius 63.4563 0 0
rwrist -16.4271 0 0
rhand -29.3311 -45.1206 0
rfingers 7.12502 0 0
rthumb -2.67145 -795.084 0
651
root 5.52353 16.2994 -2.52089 17.7746 6.87925 0.0198968
lfemur -17.9396 24.526 -28.5593
ltibia 37.0632 0 0
lfoot -36.9061 11.9281 0
ltoes 20.9099 0 0
rfemur -62.0596 -29.8774 35.4277
rtibia 67.3813 0 0
rfoot -8.22055 -3.50857 0
rtoes 2.67946 0 0
lowerback -0.680213 -3.96304 -5.7188
upperback -1.88437 -5.30437 -0.234782
thorax -1.06831 -2.58389 2.93726
lowerneck -9.65092 -7.40416 -0.532615
upperneck 3.17563 -10.3097 7.52404
head 3.20848 -4.85625 1.94466
lclavicle -1.483e-14 -2.26024e-15 0
lhumerus -44.4523 -70.7785 126.64
lradius 73.1042 0 0
lwrist 24.9632 0 0
lhand -4.98297 3.71787 0
lfingers 7.12502 0 0
lthumb 20.8098 32.6219 0
rclavicle -1.483e-14 -2.26024e-15 0
rhumerus -40.6543 -4.33431 -76.7154
rradius 61.7476 0 0
rwrist -16.2452 0 0
rhand -29.3666 -46.722 0
rfingers 7.12502 0 0
rthumb -2.70578 -796.685 0
652
root 5.52183 16.2696 -2.43889 17.7807 5.81363 0.36883
lfemur -17.4017 24.6737 -28.9211
ltibia 36.9351 0 0
lfoot -37.114 12.3006 0
ltoes 20.3595 0 0
rfemur -62.6914 -30.2631 36.2973
rtibia 67.9832 0 0
rfoot -8.34533 -3.94159 0
rtoes 2.98849 0 0
lowerback -0.591138 -4.03337 -5.88217
upperback -1.80897 -5.40325 -0.407164
thorax -1.03332 -2.63444 2.85238
lowerneck -9.69647 -7.30093 -0.573404
upperneck 3.11671 -10.1537 7.38745
head 3.18248 -4.7859 1.91621
lclavicle -3.79679e-14 -7.95139e-15 0
lhumerus -44.5367 -71.1192 127.009
lradius 73.1505 0 0
lwrist 24.9573 0 0
lhand -4.93506 3.74556 0
lfingers 7.12502 0 0
lthumb 20.8558 32.6446 0
rclavicle -3.79679e-14 -7.95139e-15 0
rhumerus -41.6572 -5.62375 -76.5216
rradius 60.334 0 0
rwrist -16.2497 0 0
rhand -29.3753 -48.1698 0
rfingers 7.12502 0 0
rthumb -2.71414 -798.132 0
653
root 5.521 16.2385 -2.34596 17.7204 4.82885 0.750432
lfemur -16.7102 24.6104 -29.3595
ltibia 36.6317 0 0
lfoot -37.4211 13.0134 0
ltoes 19.8185 0 0
rfemur -63.0212 -30.5517 36.9483
rtibia 68.4401 0 0
rfoot -8.57102 -4.93739 0
rtoes 3.84353 0 0
lowerback -0.495247 -4.15044 -6.04566
upperback -1.75465 -5.56582 -0.517152
thorax -1.01181 -2.71591 2.83187
lowerneck -9.74316 -7.1644 -0.603873
upperneck 2.96343 -9.94523 7.20367
head 3.11899 -4.69328 1.87495
lclavicle -1.76358e-15 2.11651e-15 0
lhumerus -44.2461 -71.3846 127.009
lradius 73.3774 0 0
lwrist 25.0328 0 0
lhand -4.72162 3.76087 0
lfingers 7.12502 0 0
lthumb 21.0608 32.6369 0
rclavicle -1.76358e-15 2.11651e-15 0
rhumerus -42.6698 -6.6145 -75.8822
rradius 59.5289 0 0
rwrist -16.4835 0 0
rhand -29.3955 -49.0508 0
rfingers 7.12502 0 0
rthumb -2.73363 -799.013 0
654
root 5.51974 16.2044 -2.24163 17.6579 3.79467 1.13839
lfemur -15.9943 24.5315 -29.8155
ltibia 36.355 0 0
lfoot -37.7508 13.8096 0
ltoes 19.1619 0 0
rfemur -63.2707 -30.8073 37.5907
rtibia 68.8752 0 0
rfoot -8.97768 -6.09381 0
rtoes 4.72278 0 0
lowerback -0.405354 -4.2911 -6.18866
upperback -1.70558 -5.7595 -0.605074
thorax -0.988899 -2.81307 2.8219
lowerneck -9.79302 -7.0101 -0.630942
upperneck 2.76771 -9.70993 6.99831
head 3.03932 -4.58893 1.82811
lclavicle 2.58553e-14 5.31329e-15 0
lhumerus -43.81 -71.6658 126.892
lradius 73.6678 0 0
lwrist 25.136 0 0
lhand -4.50581 3.77155 0
lfingers 7.12502 0 0
lthumb 21.2681 32.6242 0
rclavicle 2.58553e-14 5.31329e-15 0
rhumerus -43.7778 -7.59159 -75.0746
rradius 58.8079 0 0
rwrist -16.6687 0 0
rhand -29.3997 -49.761 0
rfingers 7.12502 0 0
rthumb -2.73774 -799.723 0
655
root 5.51811 16.1686 -2.12966 17.5955 2.74329 1.51836
lfemur -15.2817 24.4487 -30.2689
ltibia 36.1243 0 0
lfoot -38.0845 14.6478 0
ltoes 18.3982 0 0
rfemur -63.4319 -31.0195 38.1989
rtibia 69.2771 0 0
rfoot -9.54285 -7.3496 0
rtoes 5.57136 0 0
lowerback -0.324449 -4.44858 -6.30605
upperback -1.6625 -5.975 -0.669866
thorax -0.964963 -2.92131 2.82068
lowerneck -9.84448 -6.84434 -0.653568
upperneck 2.5406 -9.4576 6.77906
head 2.94783 -4.47716 1.77731
lclavicle 4.53096e-14 5.08842e-15 0
lhumerus -43.2487 -71.9547 126.666
lradius 74.0081 0 0
lwrist 25.258 0 0
lhand -4.30116 3.77479 0
lfingers 7.12502 0 0
lthumb 21.4647 32.6051 0
rclavicle 4.53096e-14 5.08842e-15 0
rhumerus -44.9392 -8.528 -74.1362
rradius 58.1836 0 0
rwrist -16.8001 0 0
rhand -29.3868 -50.2942 0
rfingers 7.12502 0 0
rthumb -2.72529 -800.257 0
656
root 5.51614 16.1324 -2.01385 17.5351 1.70693 1.87604
lfemur -14.6 24.3734 -30.6992
ltibia 35.9595 0 0
lfoot -38.404 15.4868 0
ltoes 17.5354 0 0
rfemur -63.4968 -31.1779 38.7474
rtibia 69.6342 0 0
rfoot -10.2441 -8.64353 0
rtoes 6.33435 0 0
lowerback -0.255522 -4.61611 -6.39273
upperback -1.62612 -6.20301 -0.710466
thorax -0.940369 -3.036 2.82645
lowerneck -9.896 -6.67343 -0.670704
upperneck 2.29316 -9.19802 6.55358
head 2.84889 -4.36225 1.7242
lclavicle 5.70199e-14 4.89137e-15 0
lhumerus -42.5825 -72.2434 126.338
lradius 74.3845 0 0
lwrist 25.39 0 0
lhand -4.12117 3.7678 0
lfingers 7.12502 0 0
lthumb 21.6376 32.5784 0
rclavicle 5.70199e-14 4.89137e-15 0
rhumerus -46.112 -9.39666 -73.1047
rradius 57.6683 0 0
rwrist -16.8726 0 0
rhand -29.3556 -50.6444 0
rfingers 7.12502 0 0
rthumb -2.69512 -800.607 0
657
root 5.51387 16.0971 -1.89796 17.4789 0.71779 2.19708
lfemur -13.9771 24.3172 -31.0863
ltibia 35.88 0 0
lfoot -38.6907 16.2851 0
ltoes 16.5818 0 0
rfemur -63.4575 -31.2723 39.2105
rtibia 69.9353 0 0
rfoot -11.0588 -9.91433 0
rtoes 6.95685 0 0
lowerback -0.201563 -4.78691 -6.44359
upperback -1.59717 -6.43423 -0.725812
thorax -0.915487 -3.1525 2.83744
lowerneck -9.94601 -6.50369 -0.681307
upperneck 2.03645 -8.94098 6.32957
head 2.74684 -4.24849 1.67039
lclavicle 6.14071e-14 8.1716e-15 0
lhumerus -41.8317 -72.5237 125.915
lradius 74.7832 0 0
lwrist 25.523 0 0
lhand -3.97938 3.74775 0
lfingers 7.12502 0 0
lthumb 21.7737 32.5428 0
rclavicle 6.14071e-14 8.1716e-15 0
rhumerus -47.2545 -10.1705 -72.0178
rradius 57.2746 0 0
rwrist -16.8812 0 0
rhand -29.3048 -50.8052 0
rfingers 7.12502 0 0
rthumb -2.64605 -800.769 0
658
root 5.51135 16.064 -1.78578 17.4289 -0.191909 2.46716
lfemur -13.4406 24.2915 -31.4098
ltibia 35.9055 0 0
lfoot -38.9264 17.0013 0
ltoes 15.5457 0 0
rfemur -63.3059 -31.2923 39.5627
rtibia 70.1689 0 0
rfoot -11.9647 -11.1008 0
rtoes 7.38394 0 0
lowerback -0.165561 -4.9542 -6.45351
upperback -1.57638 -6.65935 -0.714841
thorax -0.890686 -3.26619 2.85186
lowerneck -9.99296 -6.34144 -0.684331
upperneck 1.78153 -8.69626 6.11469
head 2.64605 -4.14019 1.61751
lclavicle 5.88919e-14 1.83786e-14 0
lhumerus -41.0166 -72.7877 125.407
lradius 75.1904 0 0
lwrist 25.6482 0 0
lhand -3.8893 3.71185 0
lfingers 7.12502 0 0
lthumb 21.8602 32.497 0
rclavicle 5.88919e-14 1.83786e-14 0
rhumerus -48.3245 -10.8226 -70.9129
rradius 57.015 0 0
rwrist -16.8206 0 0
rhand -29.2332 -50.7707 0
rfingers 7.12502 0 0
rthumb -2.5769 -800.735 0
